<svg width="157" height="45" xmlns="http://www.w3.org/2000/svg"><g fill-rule="nonzero" fill="none"><path d="M156.811 40.489A4.51 4.51 0 01152.296 45H4.52A4.516 4.516 0 010 40.489V4.517A4.522 4.522 0 014.521 0h147.774a4.516 4.516 0 014.515 4.517v35.972h.001z" fill="#000"/><path d="M34.436 22.252a6.828 6.828 0 013.251-5.729 6.99 6.99 0 00-5.507-2.977c-2.317-.243-4.563 1.387-5.744 1.387-1.203 0-3.021-1.363-4.979-1.322a7.334 7.334 0 00-6.172 3.764c-2.668 4.62-.678 11.41 1.878 15.144 1.28 1.83 2.774 3.872 4.73 3.8 1.914-.08 2.629-1.22 4.939-1.22 2.289 0 2.96 1.22 4.955 1.174 2.053-.034 3.347-1.837 4.581-3.683a15.129 15.129 0 002.096-4.268 6.598 6.598 0 01-4.028-6.07zM30.666 11.09a6.723 6.723 0 001.538-4.816 6.84 6.84 0 00-4.426 2.29 6.397 6.397 0 00-1.578 4.638 5.656 5.656 0 004.466-2.112zM62.133 36.056H59.46l-1.465-4.604h-5.093l-1.395 4.604h-2.604l5.046-15.673h3.116l5.07 15.673zm-4.58-6.535l-1.326-4.092c-.14-.419-.404-1.403-.791-2.953h-.047c-.154.667-.402 1.651-.744 2.953l-1.302 4.092h4.21zM75.109 30.266a6.424 6.424 0 01-1.558 4.557 4.556 4.556 0 01-3.465 1.489 3.464 3.464 0 01-3.209-1.605h-.046v5.953h-2.512V28.476c0-1.21-.03-2.45-.093-3.721h2.21l.139 1.79h.046a4.469 4.469 0 017.151-.442 6.236 6.236 0 011.337 4.163zm-2.558.092a4.656 4.656 0 00-.744-2.72 2.571 2.571 0 00-2.186-1.117c-.617 0-1.214.218-1.686.617-.504.41-.852.981-.988 1.617-.069.25-.108.507-.116.766v1.884c-.021.765.249 1.509.755 2.082a2.508 2.508 0 001.965.849 2.571 2.571 0 002.21-1.093c.562-.853.84-1.864.79-2.885zM88.108 30.266a6.42 6.42 0 01-1.56 4.557 4.552 4.552 0 01-3.464 1.489 3.462 3.462 0 01-3.208-1.605h-.046v5.953h-2.511V28.476c0-1.21-.032-2.45-.094-3.721h2.21l.139 1.79h.047a4.47 4.47 0 017.15-.442 6.241 6.241 0 011.337 4.163zm-2.558.092a4.652 4.652 0 00-.745-2.72 2.568 2.568 0 00-2.185-1.117c-.618 0-1.215.218-1.687.617a2.86 2.86 0 00-.987 1.617c-.068.25-.107.507-.116.766v1.884c-.02.764.248 1.508.754 2.082a2.51 2.51 0 001.967.849 2.57 2.57 0 002.208-1.093c.563-.853.84-1.864.791-2.885zM102.642 31.661a4.176 4.176 0 01-1.392 3.255 6.168 6.168 0 01-4.27 1.373 7.479 7.479 0 01-4.062-.977l.582-2.093a6.877 6.877 0 003.63 1 3.43 3.43 0 002.21-.64c.52-.413.814-1.049.79-1.713a2.183 2.183 0 00-.651-1.607 6.068 6.068 0 00-2.162-1.212c-2.745-1.024-4.117-2.522-4.116-4.495a3.981 3.981 0 011.443-3.167 5.69 5.69 0 013.837-1.235 7.606 7.606 0 013.556.744l-.628 2.047a6.173 6.173 0 00-3-.721 3.032 3.032 0 00-2.068.651 1.86 1.86 0 00-.628 1.419 1.914 1.914 0 00.72 1.534c.69.522 1.46.93 2.28 1.21a7.739 7.739 0 012.976 1.906c.645.757.985 1.727.953 2.721zM110.944 26.639h-2.768v5.487c0 1.395.489 2.093 1.466 2.093.375.008.75-.03 1.115-.116l.07 1.907c-.63.206-1.291.3-1.954.279a3.013 3.013 0 01-2.325-.907 4.455 4.455 0 01-.838-3.047V26.64h-1.649v-1.884h1.65v-2.07l2.466-.744v2.814h2.767v1.884zM123.432 30.312a6.201 6.201 0 01-1.488 4.279 5.315 5.315 0 01-4.14 1.72 5.052 5.052 0 01-3.964-1.65 6.011 6.011 0 01-1.477-4.162 6.14 6.14 0 011.523-4.302 5.271 5.271 0 014.104-1.675 5.161 5.161 0 014 1.652 5.954 5.954 0 011.442 4.138zm-2.606.082a5.09 5.09 0 00-.674-2.682 2.482 2.482 0 00-2.254-1.353 2.517 2.517 0 00-2.303 1.353 5.184 5.184 0 00-.674 2.729 5.083 5.083 0 00.674 2.681 2.566 2.566 0 004.534-.023c.48-.82.721-1.756.697-2.705zM131.594 26.963a4.342 4.342 0 00-.791-.069 2.375 2.375 0 00-2.048 1c-.439.66-.659 1.44-.628 2.232v5.93h-2.51l.024-7.743c0-1.303-.032-2.49-.095-3.558h2.188l.092 2.162h.069a3.858 3.858 0 011.256-1.79 3.037 3.037 0 011.815-.605c.21-.001.42.014.628.046v2.395zM142.824 29.87c.006.382-.024.764-.092 1.14H135.2a3.28 3.28 0 001.092 2.558c.7.55 1.575.83 2.464.79a8.34 8.34 0 003.048-.534l.393 1.743a9.436 9.436 0 01-3.788.699 5.484 5.484 0 01-4.13-1.547 5.713 5.713 0 01-1.5-4.151 6.474 6.474 0 011.397-4.256 4.812 4.812 0 013.952-1.813 4.21 4.21 0 013.699 1.813 6.11 6.11 0 01.998 3.559zm-2.395-.65a3.413 3.413 0 00-.487-1.93 2.194 2.194 0 00-2.001-1.047 2.383 2.383 0 00-2 1.024 3.736 3.736 0 00-.742 1.953h5.23zM56.722 10.74a3.866 3.866 0 01-1.246 3.13 4.956 4.956 0 01-3.278.971 15.29 15.29 0 01-1.805-.091V7.175c.703-.11 1.413-.163 2.125-.16 1.09-.079 2.17.233 3.05.88a3.552 3.552 0 011.154 2.845zm-1.302.034a2.813 2.813 0 00-.714-2.068 2.813 2.813 0 00-2.086-.72 5.266 5.266 0 00-.993.08v5.758c.277.03.555.041.833.035a2.921 2.921 0 002.188-.788c.553-.632.83-1.459.772-2.297zM63.622 11.95a3.044 3.044 0 01-.732 2.103 2.61 2.61 0 01-2.033.846 2.484 2.484 0 01-1.949-.812 2.955 2.955 0 01-.724-2.045 3.018 3.018 0 01.747-2.113 2.59 2.59 0 012.017-.822c.742-.03 1.46.266 1.965.81a2.93 2.93 0 01.709 2.034zm-1.28.041a2.506 2.506 0 00-.332-1.317 1.218 1.218 0 00-1.107-.665 1.237 1.237 0 00-1.132.665 2.551 2.551 0 00-.331 1.34c-.013.461.101.917.331 1.318a1.261 1.261 0 002.228-.012c.236-.402.355-.862.343-1.329zM72.875 9.22l-1.737 5.553h-1.13l-.72-2.41c-.18-.59-.33-1.19-.447-1.795h-.022a13.09 13.09 0 01-.446 1.794l-.765 2.41h-1.143L64.832 9.22H66.1l.628 2.64c.152.624.278 1.218.378 1.782h.022c.092-.464.244-1.055.457-1.771l.788-2.65h1.005l.755 2.593c.183.632.331 1.241.445 1.828h.034c.093-.616.22-1.226.378-1.828l.674-2.594h1.21zM79.273 14.773H78.04v-3.18c0-.98-.373-1.47-1.12-1.47-.343-.01-.672.14-.89.405a1.43 1.43 0 00-.343.951v3.294h-1.234v-3.964c0-.488-.015-1.017-.045-1.589h1.084l.058.868h.034c.15-.276.371-.507.64-.67a2.082 2.082 0 011.12-.311c.48-.015.946.166 1.29.502.46.498.691 1.164.64 1.84v3.324zM82.677 14.773h-1.233v-8.1h1.233zM89.944 11.95a3.043 3.043 0 01-.732 2.103 2.61 2.61 0 01-2.033.846 2.48 2.48 0 01-1.948-.812 2.955 2.955 0 01-.725-2.045 3.02 3.02 0 01.748-2.113 2.59 2.59 0 012.015-.822 2.541 2.541 0 011.967.81c.485.564.738 1.29.708 2.034zm-1.281.041a2.506 2.506 0 00-.332-1.317 1.217 1.217 0 00-1.106-.665 1.235 1.235 0 00-1.132.665 2.552 2.552 0 00-.331 1.34c-.013.461.102.917.331 1.318.219.414.652.671 1.12.664.468.003.896-.26 1.107-.676.237-.402.355-.862.343-1.329zM95.918 14.773h-1.109l-.092-.64h-.034c-.38.51-.988.798-1.622.766a1.672 1.672 0 01-1.268-.503 1.576 1.576 0 01-.434-1.131 1.727 1.727 0 01.85-1.554 4.432 4.432 0 012.395-.526v-.103c0-.73-.384-1.096-1.152-1.096a2.575 2.575 0 00-1.447.411l-.25-.81a3.553 3.553 0 011.904-.48c1.451 0 2.178.765 2.178 2.296v2.045c-.007.443.02.886.081 1.325zm-1.281-1.908v-.857c-1.362-.023-2.043.35-2.043 1.12a.838.838 0 00.237.651.865.865 0 00.603.217c.273 0 .538-.09.754-.257a1.05 1.05 0 00.449-.874zM102.932 14.773h-1.095l-.058-.891h-.034a1.845 1.845 0 01-1.783 1.017 2.088 2.088 0 01-1.668-.789 3.07 3.07 0 01-.662-2.045 3.215 3.215 0 01.72-2.182 2.211 2.211 0 011.714-.776 1.665 1.665 0 011.564.754h.023V6.673h1.235v6.603c0 .541.015 1.04.044 1.497zm-1.28-2.342v-.926a1.402 1.402 0 00-.48-1.136 1.212 1.212 0 00-.826-.303 1.267 1.267 0 00-1.086.548 2.353 2.353 0 00-.395 1.405c-.022.475.111.945.38 1.337.243.354.649.56 1.078.548.38.012.742-.157.975-.456.238-.285.364-.646.355-1.017zM113.488 11.95a3.044 3.044 0 01-.732 2.103 2.608 2.608 0 01-2.033.846 2.487 2.487 0 01-1.948-.812 2.955 2.955 0 01-.725-2.045 3.019 3.019 0 01.748-2.113 2.592 2.592 0 012.017-.822c.742-.03 1.46.266 1.964.81a2.93 2.93 0 01.709 2.034zm-1.28.041a2.507 2.507 0 00-.33-1.317 1.22 1.22 0 00-1.109-.665 1.24 1.24 0 00-1.132.665 2.551 2.551 0 00-.331 1.34c-.013.461.101.917.331 1.318a1.262 1.262 0 002.23-.012c.235-.402.354-.863.342-1.329zM120.124 14.773h-1.233v-3.18c0-.98-.373-1.47-1.12-1.47a1.11 1.11 0 00-.89.405 1.43 1.43 0 00-.343.951v3.294h-1.235v-3.964c0-.488-.015-1.017-.044-1.589h1.084l.057.868h.035c.15-.275.371-.506.64-.67a2.085 2.085 0 011.12-.311c.48-.015.946.166 1.29.502.46.498.691 1.164.64 1.84v3.324zM128.43 10.146h-1.359v2.696c0 .686.242 1.029.72 1.029.185.004.37-.016.55-.058l.032.937c-.309.101-.633.148-.959.137a1.475 1.475 0 01-1.14-.445 2.175 2.175 0 01-.412-1.497v-2.8h-.812V9.22h.812V8.204l1.21-.365V9.22h1.359v.925zM134.966 14.773h-1.235v-3.157c0-.995-.373-1.493-1.118-1.493a1.178 1.178 0 00-1.178.866c-.04.145-.06.295-.057.445v3.339h-1.233v-8.1h1.233v3.346h.023a1.866 1.866 0 011.667-.912c.475-.015.934.167 1.27.502.452.51.679 1.182.628 1.862v3.302zM141.706 11.734a2.95 2.95 0 01-.046.56h-3.701c-.016.477.18.937.536 1.256.345.27.775.408 1.212.389a4.1 4.1 0 001.498-.263l.193.857a4.651 4.651 0 01-1.863.343 2.688 2.688 0 01-2.027-.76 2.8 2.8 0 01-.736-2.04 3.18 3.18 0 01.685-2.09 2.36 2.36 0 011.942-.89 2.064 2.064 0 011.815.89c.342.517.514 1.128.492 1.748zm-1.178-.32a1.66 1.66 0 00-.239-.948 1.077 1.077 0 00-.982-.514 1.173 1.173 0 00-.982.503 1.86 1.86 0 00-.366.96h2.57z" fill="#FFF"/></g></svg>