<svg xmlns="http://www.w3.org/2000/svg" xmlns:xlink="http://www.w3.org/1999/xlink" viewBox="0 0 26 26" fill="#F5534C">
  <path d="M9.96875 0.15625C7.078125 0.15625 4.625 2.140625 4.625 5.9375C4.625 8.417969 5.75 10.945313 7.25 12.5C7.835938 14.054688 6.78125 14.636719 6.5625 14.71875C3.539063 15.828125 0 17.84375 0 19.84375L0 20.59375C0 23.316406 5.1875 23.9375 10 23.9375C11.804688 23.9375 13.675781 23.84375 15.28125 23.59375C12.792969 22.683594 11 20.304688 11 17.5C11 15.882813 11.582031 14.386719 12.5625 13.25C12.585938 13.019531 12.652344 12.773438 12.75 12.46875L12.71875 12.46875C14.207031 10.910156 15.34375 8.40625 15.34375 5.9375C15.34375 2.140625 12.855469 0.15625 9.96875 0.15625 Z M 17.5 12C14.460938 12 12 14.460938 12 17.5C12 20.539063 14.460938 23 17.5 23C18.796875 23 19.996094 22.566406 20.9375 21.8125L21.15625 22.03125C20.96875 22.398438 21.003906 22.847656 21.3125 23.15625L23.78125 25.625C24.164063 26.007813 24.804688 26.007813 25.1875 25.625L25.625 25.1875C26.007813 24.804688 26.007813 24.164063 25.625 23.78125L23.15625 21.3125C22.84375 20.996094 22.371094 20.957031 22 21.15625L21.78125 20.9375C22.539063 19.996094 23 18.804688 23 17.5C23 14.460938 20.539063 12 17.5 12 Z M 17.5 13.5C19.710938 13.5 21.5 15.289063 21.5 17.5C21.5 19.710938 19.710938 21.5 17.5 21.5C15.289063 21.5 13.5 19.710938 13.5 17.5C13.5 15.289063 15.289063 13.5 17.5 13.5Z" fill="#F5534C" />
</svg>