<?xml version="1.0" encoding="UTF-8"?>
<svg xmlns="http://www.w3.org/2000/svg" xmlns:xlink="http://www.w3.org/1999/xlink" width="375pt" height="374.999991pt" viewBox="0 0 375 374.999991" version="1.2">
<g id="surface1">
<path style=" stroke:none;fill-rule:nonzero;fill:rgb(98.81897%,11.369324%,7.058716%);fill-opacity:1;" d="M 308.109375 241.628906 C 278.789062 222.03125 259.050781 241.628906 251.328125 211.335938 C 236.046875 151.367188 187.484375 158.167969 187.484375 158.167969 C 187.484375 158.167969 138.921875 151.367188 123.632812 211.335938 C 115.910156 241.628906 96.171875 222.03125 66.859375 241.628906 C 29.984375 266.285156 21.574219 337.492188 187.484375 335.078125 C 353.394531 337.492188 344.976562 266.285156 308.109375 241.628906 "/>
<path style=" stroke:none;fill-rule:nonzero;fill:rgb(98.81897%,11.369324%,7.058716%);fill-opacity:1;" d="M 274.988281 111.089844 C 261.019531 137.957031 235.851562 152.539062 218.773438 143.652344 C 201.6875 134.765625 199.167969 105.777344 213.136719 78.910156 C 227.105469 52.035156 252.273438 37.460938 269.351562 46.347656 C 286.429688 55.234375 288.953125 84.222656 274.988281 111.089844 "/>
<path style=" stroke:none;fill-rule:nonzero;fill:rgb(98.81897%,11.369324%,7.058716%);fill-opacity:1;" d="M 339.121094 183.097656 C 328.289062 203.925781 308.777344 215.226562 295.539062 208.339844 C 282.300781 201.453125 280.339844 178.980469 291.171875 158.148438 C 302 137.316406 321.511719 126.019531 334.753906 132.90625 C 347.992188 139.792969 349.945312 162.265625 339.121094 183.097656 "/>
<path style=" stroke:none;fill-rule:nonzero;fill:rgb(98.81897%,11.369324%,7.058716%);fill-opacity:1;" d="M 99.980469 111.089844 C 113.945312 137.957031 139.117188 152.539062 156.195312 143.652344 C 173.273438 134.765625 175.796875 105.777344 161.824219 78.910156 C 147.863281 52.035156 122.6875 37.460938 105.609375 46.347656 C 88.53125 55.234375 86.011719 84.222656 99.980469 111.089844 "/>
<path style=" stroke:none;fill-rule:nonzero;fill:rgb(98.81897%,11.369324%,7.058716%);fill-opacity:1;" d="M 35.847656 183.097656 C 46.679688 203.925781 66.183594 215.226562 79.429688 208.339844 C 92.667969 201.453125 94.621094 178.980469 83.796875 158.148438 C 72.96875 137.316406 53.453125 126.019531 40.214844 132.90625 C 26.96875 139.792969 25.015625 162.265625 35.847656 183.097656 "/>
</g>
</svg>
