<svg xmlns="http://www.w3.org/2000/svg" xmlns:xlink="http://www.w3.org/1999/xlink" viewBox="0 0 30 30" fill="#F5534C">
  <path d="M8 1C6.895 1 6 1.895 6 3L6 27C6 28.105 6.895 29 8 29L22 29C23.105 29 24 28.105 24 27L24 3C24 1.895 23.105 1 22 1L8 1 z M 13.5 2L15.5 2C15.776 2 16 2.224 16 2.5C16 2.776 15.776 3 15.5 3L13.5 3C13.224 3 13 2.776 13 2.5C13 2.224 13.224 2 13.5 2 z M 17.5 2C17.776 2 18 2.224 18 2.5C18 2.776 17.776 3 17.5 3C17.224 3 17 2.776 17 2.5C17 2.224 17.224 2 17.5 2 z M 8 3L11 3L11.414062 3.4140625C11.789062 3.7890625 12.298125 4 12.828125 4L17.171875 4C17.701875 4 18.210938 3.7890625 18.585938 3.4140625L19 3L22 3L22 27L8 27L8 3 z M 14 8L14 9.8886719C12.195 10.195672 11.066406 11.349187 11.066406 12.992188C11.066406 14.544188 11.995781 15.529094 13.800781 15.871094L15.099609 16.130859C16.227609 16.355859 16.658203 16.650266 16.658203 17.197266C16.658203 17.847266 16.015125 18.298828 15.078125 18.298828C14.039125 18.298828 13.323719 17.839094 13.261719 17.121094L10.867188 17.121094C10.903188 18.759094 12.08 19.853953 14 20.126953L14 22L16 22L16 20.119141C17.966 19.825141 19.133812 18.665484 19.132812 16.896484C19.132813 15.331484 18.256594 14.448266 16.308594 14.072266L15.037109 13.826172C13.998109 13.620172 13.560547 13.307578 13.560547 12.767578C13.560547 12.111578 14.141438 11.693359 15.023438 11.693359C15.905437 11.693359 16.568047 12.179953 16.623047 12.876953L18.941406 12.876953C18.907406 11.333953 17.751 10.211438 16 9.8984375L16 8L14 8 z" fill="#F5534C" />
</svg>